<?xml version="1.0" encoding="UTF-8"?><svg id="Camada_1" xmlns="http://www.w3.org/2000/svg" viewBox="0 0 167.38 75.9"><defs><style>.cls-1{fill:#04539c;}.cls-1,.cls-2{fill-rule:evenodd;}.cls-2{fill:#231f20;}</style></defs><g id="g6955"><g id="g6957"><g id="g6963"><path id="path6965" class="cls-1" d="M78.77,0h88.61v1.66h-88.61V0ZM42.83,29.61c-1.9,0-3.45-1.55-3.45-3.46v-2.96c0-1.91,1.54-3.46,3.45-3.46h22.64c1.9,0,3.45,1.55,3.45,3.46v2.96c0,1.91-1.54,3.46-3.45,3.46h-22.64ZM22.79,49.36c-1.2,0-2.36-.61-3-1.72l-7.66-13.27c-.09-.15-.14-.31-.17-.49-.12-.77.4-1.49,1.17-1.61l6.06-.94c1.34-.21,2.62.45,3.26,1.57l3.49,6.1c.17.29.49.49.85.49h15.87c.36,0,.68-.19.85-.49l3.49-6.1c.63-1.12,1.91-1.78,3.26-1.57l6.06.94c.76.12,1.29.84,1.16,1.61-.03.18-.09.34-.17.49l-7.66,13.27c-.64,1.11-1.81,1.73-3,1.72h-23.83ZM22.66,0c-1.2,0-2.36.61-3,1.72l-7.66,13.51c-.08.15-.14.31-.17.49-.12.77.4,1.49,1.16,1.61l6.05.94c1.34.21,2.62-.45,3.26-1.57l3.49-6.35c.17-.29.49-.49.85-.49h15.87c.36,0,.68.19.86.49l3.49,6.35c.64,1.12,1.91,1.78,3.26,1.57l6.05-.94c.76-.12,1.29-.84,1.16-1.61-.03-.18-.09-.34-.17-.49l-7.66-13.51C48.86.61,47.69,0,46.49,0h-23.83ZM3.45,29.62c-1.9,0-3.45-1.55-3.45-3.46v-2.96c0-1.91,1.54-3.46,3.45-3.46h22.64c1.9,0,3.45,1.55,3.45,3.46v2.96c0,1.91-1.54,3.46-3.45,3.46H3.45ZM78.77,47.7h88.61v1.66h-88.61v-1.66Z"/></g></g></g><g id="g6967"><path id="path6979" class="cls-2" d="M10.47,72.85c.81,0,1.06-.8,1.06-1.48s-.26-1.49-1.06-1.49-1.06.81-1.06,1.49.24,1.48,1.06,1.48M10.47,68.55c1.65,0,2.81,1.22,2.81,2.82s-1.16,2.81-2.81,2.81-2.79-1.21-2.79-2.81,1.15-2.82,2.79-2.82M14.18,68.7h1.69v.73h.02c.32-.53.88-.88,1.53-.88s1.26.22,1.55.86c.42-.56.94-.86,1.66-.86,1.69,0,1.87,1.28,1.87,2.3v3.18h-1.74v-3.13c0-.57-.28-.91-.73-.91-.75,0-.82.58-.82,1.44v2.61h-1.74v-3.03c0-.63-.18-1.02-.65-1.02-.62,0-.89.36-.89,1.45v2.6h-1.74v-5.33ZM25.34,71.31c0,.94.27,1.54,1.05,1.54s1.04-.81,1.04-1.54c0-.68-.27-1.43-1.03-1.43-.47,0-1.06.33-1.06,1.43M23.66,68.7h1.66v.62h.02c.34-.5.85-.77,1.46-.77,1.67,0,2.37,1.44,2.37,2.94,0,1.38-.74,2.7-2.24,2.7-.65,0-1.16-.25-1.51-.73h-.02v2.36h-1.74v-7.11ZM32.29,73.11c.83,0,1.11-.47,1.06-1.57-.24.15-.7.18-1.07.29-.39.09-.72.26-.72.68s.34.61.73.61M30.04,70.35c.03-.7.36-1.15.83-1.43.47-.27,1.09-.37,1.69-.37,1.26,0,2.48.28,2.48,1.79v2.33c0,.45,0,.94.21,1.37h-1.75c-.06-.16-.08-.33-.1-.5-.45.47-1.11.66-1.75.66-1.01,0-1.81-.51-1.81-1.61,0-1.73,1.88-1.6,3.09-1.85.3-.06.46-.16.46-.49,0-.4-.48-.56-.84-.56-.48,0-.79.22-.87.67h-1.63ZM36.18,68.7h1.69v.73h.02c.32-.54,1.03-.88,1.67-.88,1.77,0,1.91,1.29,1.91,2.06v3.42h-1.74v-2.58c0-.73.08-1.47-.87-1.47-.65,0-.94.56-.94,1.14v2.9h-1.74v-5.33ZM42.63,66.7h1.74v2.73h.02c.27-.54.98-.88,1.62-.88,1.77,0,1.91,1.29,1.91,2.06v3.42h-1.74v-2.58c0-.73.08-1.47-.87-1.47-.65,0-.94.56-.94,1.14v2.9h-1.74v-7.33ZM49.15,68.7h1.74v5.33h-1.74v-5.33ZM49.15,66.7h1.74v1.33h-1.74v-1.33ZM54.3,73.11c.83,0,1.11-.47,1.06-1.57-.25.15-.7.18-1.08.29-.39.09-.72.26-.72.68s.34.61.73.61M52.05,70.35c.03-.7.36-1.15.83-1.43.47-.27,1.08-.37,1.69-.37,1.26,0,2.48.28,2.48,1.79v2.33c0,.45,0,.94.21,1.37h-1.75c-.06-.16-.08-.33-.1-.5-.45.47-1.12.66-1.75.66-1.01,0-1.81-.51-1.81-1.61,0-1.73,1.88-1.6,3.09-1.85.3-.06.46-.16.46-.49,0-.4-.48-.56-.84-.56-.48,0-.79.22-.87.67h-1.63ZM63.38,71.57c.04.86.57,1.14,1.38,1.14.57,0,1.17-.21,1.17-.75,0-.65-1.04-.77-2.1-1.07-1.04-.3-2.14-.77-2.14-2.11,0-1.6,1.61-2.23,2.98-2.23,1.45,0,2.92.71,2.93,2.36h-1.91c.03-.67-.59-.88-1.18-.88-.41,0-.92.14-.92.63,0,.56,1.05.67,2.12.97,1.05.3,2.12.79,2.12,2.11,0,1.86-1.58,2.45-3.18,2.45s-3.16-.74-3.17-2.62h1.9ZM68.71,68.7h1.74v5.33h-1.74v-5.33ZM68.71,66.7h1.74v1.33h-1.74v-1.33ZM73.16,71.31c0,.73.27,1.54,1.07,1.54.85,0,1.03-.81,1.03-1.49,0-.77-.28-1.48-1.03-1.48-.8,0-1.07.75-1.07,1.43M76.94,74.03h-1.66v-.62h-.02c-.34.5-.85.77-1.46.77-1.67,0-2.37-1.44-2.37-2.94,0-1.39.74-2.7,2.24-2.7.66,0,1.16.25,1.52.73h.02v-2.58h1.74v7.33ZM81.78,70.82c-.03-.59-.45-1.09-1.03-1.09-.61,0-1.02.44-1.13,1.09h2.16ZM79.61,71.79c.03.73.45,1.21,1.19,1.21.42,0,.83-.19.99-.58h1.63c-.32,1.23-1.45,1.77-2.64,1.77-1.73,0-2.91-1.05-2.91-2.83,0-1.63,1.3-2.8,2.87-2.8,1.9,0,2.86,1.44,2.78,3.24h-3.9ZM84.45,68.7h1.69v.93h.02c.26-.68.85-1.04,1.6-1.04.13,0,.28.01.41.04v1.59c-.23-.06-.43-.1-.67-.1-.86,0-1.31.6-1.31,1.26v2.64h-1.74v-5.33ZM93.17,66.6l-1.61,1.53h-1.23l.99-1.53h1.84ZM94.03,74.03h-1.69v-.73h-.02c-.33.54-1,.88-1.62.88-1.52,0-1.97-.88-1.97-2.28v-3.2h1.74v3.09c0,.71.31.96.86.96.38,0,.95-.25.95-1.19v-2.85h1.74v5.33ZM95.26,68.7h1.69v.93h.02c.26-.68.85-1.04,1.6-1.04.13,0,.28.01.41.04v1.59c-.23-.06-.43-.1-.67-.1-.86,0-1.31.6-1.31,1.26v2.64h-1.74v-5.33ZM101.82,69.88c-.77,0-1.01.68-1.01,1.33s.29,1.25,1,1.25,1.06-.57,1.06-1.24-.27-1.34-1.05-1.34M104.52,73.38c0,.87-.16,2.52-2.65,2.52-1.24,0-2.41-.28-2.61-1.7h1.74c.04.24.13.38.3.46.15.08.37.11.63.11.83,0,.91-.58.91-1.24v-.5h-.02c-.32.49-.85.78-1.41.78-1.61,0-2.34-1.15-2.34-2.65,0-1.42.83-2.61,2.34-2.61.63,0,1.12.28,1.42.82h.02v-.67h1.67v4.68ZM105.7,68.7h1.74v5.33h-1.74v-5.33ZM105.7,66.7h1.74v1.33h-1.74v-1.33ZM112.12,70.65c-.01-.45-.41-.77-.85-.77-.97,0-1.13.83-1.13,1.57,0,.69.3,1.4,1.03,1.4.61,0,.91-.35.99-.91h1.69c-.15,1.43-1.26,2.25-2.67,2.25-1.6,0-2.79-1.1-2.79-2.73s1.08-2.91,2.79-2.91c1.32,0,2.5.7,2.62,2.11h-1.69ZM116.92,73.11c.83,0,1.11-.47,1.07-1.57-.25.15-.7.18-1.08.29-.39.09-.72.26-.72.68s.34.61.73.61M114.67,70.35c.03-.7.36-1.15.83-1.43.47-.27,1.08-.37,1.69-.37,1.26,0,2.48.28,2.48,1.79v2.33c0,.45,0,.94.2,1.37h-1.75c-.06-.16-.08-.33-.1-.5-.45.47-1.12.66-1.75.66-1.01,0-1.81-.51-1.81-1.61,0-1.73,1.88-1.6,3.09-1.85.3-.06.46-.16.46-.49,0-.4-.48-.56-.84-.56-.48,0-.79.22-.87.67h-1.63ZM124.09,66.7h1.95l2.54,4.52h.02v-4.52h1.79v7.33h-1.96l-2.54-4.57h-.02v4.57h-1.79v-7.33ZM133.81,73.11c.83,0,1.11-.47,1.07-1.57-.25.15-.7.18-1.08.29-.39.09-.72.26-.72.68s.34.61.73.61M131.56,70.35c.03-.7.36-1.15.83-1.43.47-.27,1.09-.37,1.69-.37,1.26,0,2.48.28,2.48,1.79v2.33c0,.45,0,.94.2,1.37h-1.75c-.06-.16-.08-.33-.1-.5-.45.47-1.12.66-1.75.66-1.01,0-1.81-.51-1.81-1.61,0-1.73,1.88-1.6,3.09-1.85.3-.06.46-.16.46-.49,0-.4-.48-.56-.84-.56-.48,0-.79.22-.87.67h-1.63ZM141.16,70.65c-.01-.45-.41-.77-.85-.77-.97,0-1.13.83-1.13,1.57,0,.69.3,1.4,1.03,1.4.61,0,.91-.35.99-.91h1.69c-.15,1.43-1.26,2.25-2.67,2.25-1.6,0-2.79-1.1-2.79-2.73s1.08-2.91,2.79-2.91c1.32,0,2.5.7,2.62,2.11h-1.69ZM143.83,68.7h1.74v5.33h-1.74v-5.33ZM143.83,66.7h1.74v1.33h-1.74v-1.33ZM149.34,72.85c.81,0,1.07-.8,1.07-1.48s-.26-1.49-1.07-1.49-1.06.81-1.06,1.49.24,1.48,1.06,1.48M149.34,68.55c1.65,0,2.81,1.22,2.81,2.82s-1.16,2.81-2.81,2.81-2.79-1.21-2.79-2.81,1.14-2.82,2.79-2.82M153.06,68.7h1.69v.73h.02c.32-.54,1.04-.88,1.67-.88,1.77,0,1.91,1.29,1.91,2.06v3.42h-1.74v-2.58c0-.73.08-1.47-.87-1.47-.65,0-.94.56-.94,1.14v2.9h-1.74v-5.33ZM161.69,73.11c.83,0,1.11-.47,1.07-1.57-.25.15-.7.18-1.08.29-.39.09-.72.26-.72.68s.34.61.73.61M159.44,70.35c.03-.7.36-1.15.83-1.43.47-.27,1.09-.37,1.69-.37,1.26,0,2.48.28,2.48,1.79v2.33c0,.45,0,.94.2,1.37h-1.75c-.06-.16-.08-.33-.1-.5-.45.47-1.12.66-1.75.66-1.01,0-1.81-.51-1.81-1.61,0-1.73,1.88-1.6,3.09-1.85.3-.06.46-.16.46-.49,0-.4-.48-.56-.84-.56-.48,0-.79.22-.87.67h-1.63ZM165.64,66.7h1.74v7.33h-1.74v-7.33ZM119.35,29.57c.17,3.49,2.42,4.61,5.83,4.61,2.42,0,4.92-.83,4.92-3.03,0-2.62-4.4-3.12-8.84-4.31-4.39-1.21-9-3.12-9-8.55,0-6.48,6.76-9.01,12.53-9.01,6.12,0,12.27,2.86,12.31,9.55h-8.01c.13-2.7-2.5-3.57-4.96-3.57-1.72,0-3.88.58-3.88,2.53,0,2.29,4.44,2.7,8.92,3.9,4.44,1.2,8.91,3.2,8.91,8.56,0,7.51-6.63,9.92-13.4,9.92s-13.31-2.99-13.36-10.59h8ZM140.88,9.87h8.2l10.69,18.25h.08V9.87h7.51v29.61h-8.2l-10.69-18.45h-.09v18.45h-7.51V9.87ZM100.14,20.48c-.43-2.99-2.85-4.57-6.21-4.57-5.18,0-7.16,4.41-7.16,8.81s1.98,8.81,7.16,8.81c3.75,0,5.91-2.08,6.21-5.49h8.02c-.43,7.64-6.25,12.12-14.06,12.12-9.31,0-15.34-6.84-15.34-15.44s6.03-15.44,15.34-15.44c6.64,0,13.84,4.06,14.06,11.2h-8.02ZM5.08,69.32c-.1-.74-.68-1.13-1.47-1.13-1.23,0-1.7,1.09-1.7,2.18s.47,2.18,1.7,2.18c.89,0,1.4-.51,1.47-1.35h1.9c-.1,1.89-1.48,3-3.34,3C1.44,74.19,0,72.49,0,70.37s1.44-3.82,3.65-3.82c1.58,0,3.29,1.01,3.34,2.77h-1.9Z"/></g></svg>