<?xml version="1.0" encoding="UTF-8"?><svg id="Camada_1" xmlns="http://www.w3.org/2000/svg" viewBox="0 0 198.02 156.6"><defs><style>.cls-1{fill:#163f1e;}.cls-2{fill:#163f1f;}.cls-3{fill:#163e1e;}.cls-4{fill:#feeb1a;}</style></defs><path class="cls-3" d="M0,15.89C.57,5.24,10.11.57,19.67,0h178.35s0,141.61,0,141.61c0,7.82-7.6,15.31-15.51,14.98H0S0,15.89,0,15.89Z"/><path class="cls-4" d="M75.04,27.1v59.01c0,2.31,4.02,6.33,6.46,6.57,9.52.09,20.16,1.01,29.64.34,3.23-.23,6.05-1.42,7.73-4.26.29-.5,1.25-2.49,1.25-2.92V27.1h24.75v61.88c0,3.61-4.97,8.99-8.59,9.65-25.23.87-50.64.17-75.93.36-4.06-.13-10.06-5.77-10.06-9.74V27.1h24.75Z"/><path class="cls-4" d="M95.3,58.95c18.23-2.47,20.08,23.74,3.81,25.43-17.19,1.79-19.19-23.36-3.81-25.43Z"/><path class="cls-4" d="M53.67,104.22c9.06.34,25.54-2.55,24.5,11.35-.55,7.37-7.88,8.67-13.94,8.99-2.57.14-7.22.29-9.66,0-.26-.03-.9-.12-.9-.4v-19.93Z"/><path class="cls-4" d="M157.84,103.78c6.74-.48,15.09,2.53,15.18,10.47.17,14.13-25.92,13.92-27.35,1.8-.93-7.84,5.08-11.77,12.17-12.27Z"/><path class="cls-4" d="M31.53,104.22v13.16c0,.23.63,1.77.82,2.05,1.35,1.96,6.47,2,8.04.3.52-.56,1.3-2.94,1.3-3.65v-11.86h6.51v13.94c0,.43-.87,2.52-1.19,2.98-4.03,5.94-22.26,5.24-22.26-3.76v-13.16h6.77Z"/><path class="cls-4" d="M118.55,124.54h-6.9c-.52,0-1.22-3.13-1.87-3.35-2.93.19-6.51-.4-9.35-.06-1.49.18-1.37,2.46-2.33,3.4h-6.9l10.28-20.34c1.32.26,6.29-.4,7.05.28l10.03,20.07Z"/><path class="cls-4" d="M126.89,129.49c.86-1.48,2.45-2.68,3.39-4.03.15-.22.36-.26.26-.65-7.23-.21-12.58-4.96-11.4-12.58,1.49-9.56,19.68-11.55,24.42-3.45-.02.26-4.57,1.95-4.83,1.94-.57-.03-1.57-1.45-2.28-1.86-3.89-2.29-9.82-.74-10.54,4.16-.84,5.72,3.53,8.82,8.86,7.55,1.66-.4,3.74-2.53,3.98-2.56.3-.03,3.85,1.28,4.5,1.51.25.09.78-.05.57.45-.57,1.37-4.33,3.62-5.79,4.12-.67.23-3.38.65-3.54.76-.25.16-2.09,4-2.39,4.64h-5.21Z"/><rect class="cls-4" x="82.59" y="104.22" width="6.51" height="20.32"/><path class="cls-1" d="M60.45,120.37v-11.99h5.34c1.13,0,3.81,1.26,4.56,2.22,2.04,2.59,1.34,7.42-1.82,8.86-.58.26-2.74.91-3.26.91h-4.82Z"/><path class="cls-1" d="M157.31,108.19c5.65-.89,9.31,1.69,8.67,7.62s-10.7,6.53-12.96,1.5c-1.64-3.66.11-8.46,4.29-9.12Z"/><polygon class="cls-2" points="108.39 117.51 101.35 117.51 105 109.69 108.39 117.51"/></svg>