<svg xmlns="http://www.w3.org/2000/svg" width="230" height="52" viewBox="0 0 326 52" fill="none">
              <path
                d="M29.4038 31.8932C29.4038 39.3779 26.7468 41.7745 20.3172 41.7745C13.6495 41.7745 11.6066 39.6237 11.6066 31.8932V0.725124H0.32666V30.3323C0.32666 46.666 7.89675 51.9877 20.2044 51.9877C34.1414 51.9877 40.1448 44.1834 40.1448 30.3323V0.725124H29.4164V31.8932H29.4038ZM88.6736 51.2257H99.9912V0.725124H88.6736V51.2257ZM148.858 0.725124L138.406 38.4684H138.055L127 0.725124H114.229C112.224 17.6611 109.554 51.2257 109.554 51.2257H119.067L121.949 16.2354H122.3L132.452 51.2257H143.143L152.969 16.2354H153.333L155.539 51.2257H166.355C166.355 51.2257 163.773 17.575 161.855 0.725124H148.858ZM175.93 51.2257H187.223V0.725124H175.943L175.93 51.2257ZM228.407 33.835L228.056 33.9088C227.454 31.8809 210.171 0.725124 210.171 0.725124H198.415V51.2257H208.579L208.604 16.3829L208.955 16.3091L227.617 51.238H238.609V0.725124H228.432L228.407 33.835ZM259.878 0.725124C254 17.87 244.349 51.2257 244.349 51.2257H254.727L258.198 39.1444H272.988L276.372 51.2257H287.89C287.89 51.2257 277.976 17.575 272.474 0.725124H259.878ZM260.78 29.939L265.342 12.0199H265.706L270.356 29.939H260.78ZM59.4711 14.4287C59.4711 11.1472 61.8023 9.48806 65.3618 9.27913C69.9489 9.00875 77.7195 10.7908 77.7195 10.7908V1.06925C74.2478 0.442449 70.7385 0.0860317 67.2167 0C55.8991 0 47.8277 5.22335 47.8277 15.1293C47.8277 30.5781 69.0591 28.9558 69.0591 37.3623C69.0591 40.7299 67.1916 42.303 63.0055 42.7086C57.165 43.2371 48.6298 39.7712 48.6298 39.7712V50.1196C52.8536 51.3486 57.2277 51.9754 61.6394 52C72.7062 52 80.6398 46.9118 80.6398 36.3422C80.6273 21.6185 59.4711 22.147 59.4711 14.4287ZM304.183 14.4287C304.183 11.1472 306.514 9.48806 310.074 9.27913C314.661 9.00875 322.419 10.7908 322.419 10.7908V1.06925C318.947 0.442449 315.438 0.0860317 311.904 0C300.599 0 292.515 5.22335 292.515 15.1293C292.515 30.5781 313.721 28.9558 313.721 37.3623C313.721 40.7299 311.866 42.303 307.692 42.7086C301.852 43.2371 293.317 39.7712 293.317 39.7712V50.1196C297.54 51.3486 301.915 51.9754 306.314 52C317.381 52 325.327 46.9118 325.327 36.3422C325.352 21.6185 304.183 22.147 304.183 14.4287Z"
                fill="#84DB00" />
            </svg>