<?xml version="1.0" encoding="UTF-8"?><svg id="Camada_1" xmlns="http://www.w3.org/2000/svg" viewBox="0 0 333.05 145.83"><defs><style>.cls-1{fill:#bb1a1a;}.cls-2{fill:#c12028;}.cls-3{fill:#c01e28;}.cls-4{fill:#be1b1b;}.cls-5{fill:#545454;}.cls-6{fill:#c2232c;}.cls-7{fill:#bf1a19;}.cls-8{fill:#505050;}.cls-9{fill:#555;}.cls-10{fill:#575656;}.cls-11{fill:#565656;}.cls-12{fill:#585757;}.cls-13{fill:#c11e27;}.cls-14{fill:#525252;}.cls-15{fill:#fffefe;}.cls-16{fill:#c01d28;}.cls-17{fill:#c11f27;}.cls-18{fill:#c12029;}.cls-19{fill:#ba1a19;}.cls-20{fill:#535353;}</style></defs><path class="cls-16" d="M64.05,0c4.22,5.25,21.79,11.98,24.63,16.75.62,29.93.79,59.94.5,90.03-6.2.45-12.28.32-18.23-.37-1.01-3.09.89-21.78,0-22.67h-18.73v42.38l41.38,1-30.54,18.71h-.99l-26.6-15.77c-.1-30.02.23-59.91.99-89.67,4.27-.88,10.3-.81,14.78,0,.24,7.24.57,14.47.99,21.68.94.31,18.77.32,19.71,0V20.69l-38.16-.5c-2.13-.28-2.73-.6-1.25-2.46C42.13,12.14,51.96,6.37,61.09,0h2.96Z"/><polygon class="cls-16" points="0 35.47 18.72 25.62 18.72 121.2 0 111.35 0 35.47"/><path class="cls-3" d="M107.41,26.6l16.59,9.02.2,74.08c-5.37,2.96-10.5,6.46-15.81,9.53l-.99-.16V26.6Z"/><path class="cls-14" d="M164.29,76.1c3.15-.64,14.36,1.13,15.03,4.27.18.81-2.7,5-3.59,5.27-2.2.66-10.11-6.19-12.05-.26-1.61,4.91,6.03,5.05,9.45,7.04,14.55,8.46,4.81,26.31-12.23,20.12-1.56-.57-6.83-3.27-7.14-4.75-.23-1.11,3.75-5.11,4.52-5.24s11.89,8.61,14.01,1.22c1.65-5.77-9.46-6.17-13.02-9.3-6.6-5.78-3.45-16.64,5.02-18.36Z"/><polygon class="cls-20" points="212.84 75.87 212.84 83.76 202.99 83.76 202.99 113.32 195.1 113.32 195.1 83.76 185.24 83.76 185.25 75.87 212.84 75.87"/><path class="cls-13" d="M220.45,38.66c23.93-4.95,25.18,32.12.82,28.28-14.65-2.31-14.96-25.35-.82-28.28Z"/><path class="cls-5" d="M289.7,75.87v29.56h13.8v7.88h-21.68v-35.97c0-1.9,6.29-1.57,7.88-1.48Z"/><path class="cls-13" d="M294.62,55.19h-5.91s0-5.92,0-5.92h11.83c1.75,13.09-10.94,23.39-22.6,15.21-15.87-11.14,2.14-35.57,17.65-22.59-4.28,6.7-9.04-1.25-15.29,4.41-10.51,9.51,9.52,24.82,14.31,8.9Z"/><path class="cls-17" d="M183.28,38.43c8.86-1.43,4.72,5.47,6.48,10.86,1.61-.31,8.91.37,9.29-.01,1.4-1.4-3.63-13.39,5.91-10.84v28.58h-5.92s-.56-11.84-.56-11.84h-9.29s.01,11.85.01,11.85h-5.92v-28.58Z"/><path class="cls-13" d="M261.12,54.2v-15.77h5.91v28.58c-1.72.43-1.97-.71-2.96-1.47-4.44-3.4-8.06-8.92-11.84-12.8-.94-.97-1.28-1.85-2.94-1.5v15.77h-4.93v-28.58c3.41.15,4.75,4.22,6.87,6.43,3.1,3.24,6.36,6.56,9.88,9.34Z"/><path class="cls-18" d="M163.57,62.08h14.78v4.93h-24.63c2.55-8.12,9.92-15.08,14.78-22.18l-12.81-.48v-5.92h22.18c.27,0,1.38.89,1,1.96-2.25,6.25-12.92,14.66-15.29,21.69Z"/><polygon class="cls-2" points="311.38 38.43 311.38 61.09 322.22 61.09 322.22 67.01 306.45 67.01 306.45 38.43 311.38 38.43"/><rect class="cls-11" x="250.28" y="75.87" width="24.63" height="7.88"/><rect class="cls-9" x="250.28" y="105.43" width="24.63" height="7.88"/><path class="cls-12" d="M243.39,75.87v7.88h-24.63c-.09-1.59-.42-7.88,1.48-7.88h23.16Z"/><path class="cls-10" d="M243.39,105.43v7.88h-24.63c-.09-1.59-.42-7.88,1.48-7.88h23.16Z"/><rect class="cls-6" x="327.14" y="38.43" width="5.91" height="28.58"/><rect class="cls-8" x="218.75" y="90.65" width="20.69" height="6.9"/><rect class="cls-8" x="250.28" y="90.65" width="20.69" height="6.9"/><path class="cls-1" d="M88.68,16.75c.39.65,1.31,1.17,1.04,2.36l-.05,88.3c-5.46-.53-12,.7-17.3.02-1-.13-1.1-.01-1.43-1.01h17.74s0-89.67,0-89.67Z"/><path class="cls-19" d="M107.41,26.6l.99,92.62c-.48.28-1.99,1.57-1.98.49l.99-93.11Z"/><path class="cls-7" d="M35.47,130.07V39.41h16.75v22.66c-1-.33-.88-.43-1.01-1.43-.79-6.19.63-13.87.03-20.25h-14.78l-.99,89.67Z"/><path class="cls-4" d="M32.52,17.74l1.46,1.97,37.95.98H27.6c.44-1.61,3.39-2.06,4.92-2.96Z"/><path class="cls-15" d="M221.42,44.56c15.54-3.58,15.2,18.78,2.22,17.1-9.92-1.28-10.55-15.18-2.22-17.1Z"/></svg>